<svg width="280" height="100" viewBox="0 0 280 100" fill="none" xmlns="http://www.w3.org/2000/svg">
<path fill-rule="evenodd" clip-rule="evenodd" d="M42.6841 80.3227C31.8639 87.1747 18.6636 93.8298 2.73614 100L0.478663 94.1588C14.7524 88.6293 26.664 82.7545 36.5321 76.7723C14.2237 63.2179 3.81775 48.9304 0.879274 36.2296C-3.4153 17.6674 8.75148 2.75305 21.5345 2.75305C30.4458 2.75305 37.7995 7.64695 42.9373 13.694C44.8333 11.0519 47.0405 8.56425 49.5033 6.45268C53.852 2.72417 59.2068 0 65.168 0C72.7145 0 79.0714 4.23867 82.4792 11.0341C85.8638 17.7832 86.2863 26.861 82.7142 36.8378C78.298 49.1722 67.7578 63.0483 48.5997 76.3953C56.9982 80.7957 66.9187 85.1378 78.589 89.3126L76.4841 95.2106C63.2411 90.4732 52.0579 85.4669 42.6841 80.3227ZM42.4528 73.0107C19.1833 59.5311 9.50794 45.7698 6.97371 34.8163C3.36615 19.2235 13.7032 9.01624 21.5345 9.01624C28.7636 9.01624 35.1172 13.5363 39.4558 19.3475C39.349 19.5517 39.2442 19.7559 39.1414 19.96C36.7208 24.7637 35.2128 29.8562 35.3232 33.9935C35.3784 36.0634 35.8498 38.2393 37.1868 39.9629C38.6289 41.8221 40.7553 42.7411 43.1794 42.7411C45.5175 42.7411 47.6077 41.9331 49.1147 40.2522C50.5477 38.6537 51.1587 36.5944 51.3217 34.5947C51.6441 30.6384 50.319 25.8234 48.0273 21.3244C47.6551 20.5936 47.2502 19.8581 46.8136 19.1236C48.6991 16.1804 50.9987 13.4165 53.5724 11.2099C57.201 8.09875 61.1657 6.26319 65.168 6.26319C70.1618 6.26319 74.4557 8.99317 76.8885 13.8444C79.3446 18.742 79.9529 25.989 76.8253 34.7243C72.7741 46.0394 62.4754 59.6668 42.4528 73.0107ZM43.2992 25.9672C42.0958 29.0393 41.5228 31.8038 41.5768 33.8262C41.6128 35.1761 41.9172 35.85 42.1276 36.1213C42.2329 36.257 42.4256 36.4779 43.1794 36.4779C44.0194 36.4779 44.3127 36.232 44.4592 36.0686C44.6796 35.8227 44.9919 35.2473 45.0866 34.0853C45.2497 32.0841 44.6873 29.1901 43.2992 25.9672Z" fill="#DD021C"/>
<path d="M127.643 58.884H136.219C136.475 60.804 137.265 62.4893 138.587 63.94C139.953 65.3907 141.745 66.5213 143.963 67.332C146.182 68.1 148.742 68.484 151.643 68.484C155.953 68.484 159.366 67.8227 161.883 66.5C164.401 65.1347 165.659 63.3 165.659 60.996C165.659 59.1187 164.934 57.7107 163.483 56.772C162.033 55.8333 159.409 55.1293 155.611 54.66L145.243 53.316C139.441 52.548 135.217 51.1187 132.571 49.028C129.969 46.8947 128.667 43.8867 128.667 40.004C128.667 37.06 129.542 34.5213 131.291 32.388C133.083 30.212 135.601 28.548 138.843 27.396C142.086 26.2013 145.883 25.604 150.235 25.604C154.545 25.604 158.363 26.244 161.691 27.524C165.019 28.804 167.665 30.596 169.627 32.9C171.633 35.1613 172.721 37.828 172.891 40.9H164.315C164.102 39.1933 163.377 37.7213 162.139 36.484C160.945 35.2467 159.323 34.2867 157.275 33.604C155.227 32.8787 152.817 32.516 150.043 32.516C146.118 32.516 142.982 33.156 140.635 34.436C138.289 35.716 137.115 37.4653 137.115 39.684C137.115 41.3907 137.798 42.7133 139.163 43.652C140.571 44.548 143.003 45.2307 146.459 45.7L156.955 47.172C161.265 47.7693 164.657 48.58 167.131 49.604C169.649 50.5853 171.441 51.9293 172.507 53.636C173.574 55.3 174.107 57.4547 174.107 60.1C174.107 63.172 173.169 65.86 171.291 68.164C169.414 70.468 166.769 72.26 163.355 73.54C159.985 74.7773 156.038 75.396 151.515 75.396C146.907 75.396 142.833 74.7133 139.291 73.348C135.793 71.94 133.019 69.9987 130.971 67.524C128.923 65.0493 127.814 62.1693 127.643 58.884ZM181.002 38.02L185.162 38.788L189.322 38.02V74.5H181.002V38.02ZM185.162 33.476C183.584 33.476 182.282 33.0493 181.258 32.196C180.234 31.3 179.722 30.148 179.722 28.74C179.722 27.332 180.234 26.2013 181.258 25.348C182.282 24.452 183.584 24.004 185.162 24.004C186.784 24.004 188.085 24.452 189.066 25.348C190.09 26.2013 190.602 27.332 190.602 28.74C190.602 30.148 190.09 31.3 189.066 32.196C188.085 33.0493 186.784 33.476 185.162 33.476ZM194.031 44.676V40.9L201.775 38.916L205.231 28.804H210.095V38.276H226.927V44.676H210.095V60.356C210.095 63.3853 210.735 65.5187 212.015 66.756C213.338 67.9507 215.471 68.548 218.415 68.548C220.293 68.548 221.957 68.356 223.407 67.972C224.858 67.5453 226.245 66.948 227.567 66.18V73.028C226.458 73.5827 224.879 74.116 222.831 74.628C220.826 75.14 218.757 75.396 216.623 75.396C213.082 75.396 210.223 74.82 208.047 73.668C205.871 72.4733 204.271 70.852 203.247 68.804C202.266 66.7133 201.775 64.324 201.775 61.636V44.676H194.031ZM266.294 74.5L264.886 61.06L266.55 56.388L264.886 51.78L266.294 38.276H274.87L272.95 56.388L274.87 74.5H266.294ZM268.854 56.388C268.044 60.1853 266.7 63.5133 264.822 66.372C262.945 69.2307 260.62 71.4493 257.846 73.028C255.116 74.6067 252.065 75.396 248.694 75.396C245.153 75.396 242.017 74.6067 239.286 73.028C236.556 71.4067 234.422 69.1667 232.886 66.308C231.35 63.4493 230.582 60.1427 230.582 56.388C230.582 52.5907 231.35 49.284 232.886 46.468C234.422 43.6093 236.556 41.3907 239.286 39.812C242.017 38.1907 245.153 37.38 248.694 37.38C252.065 37.38 255.116 38.1693 257.846 39.748C260.62 41.3267 262.945 43.5453 264.822 46.404C266.742 49.22 268.086 52.548 268.854 56.388ZM239.03 56.388C239.03 58.82 239.521 60.9747 240.502 62.852C241.526 64.6867 242.913 66.1373 244.662 67.204C246.412 68.228 248.417 68.74 250.678 68.74C252.982 68.74 255.116 68.228 257.078 67.204C259.041 66.1373 260.769 64.6867 262.262 62.852C263.798 60.9747 265.014 58.82 265.91 56.388C265.014 53.956 263.798 51.8227 262.262 49.988C260.769 48.1107 259.041 46.66 257.078 45.636C255.116 44.5693 252.982 44.036 250.678 44.036C248.417 44.036 246.412 44.5693 244.662 45.636C242.913 46.66 241.526 48.1107 240.502 49.988C239.521 51.8227 239.03 53.956 239.03 56.388Z" fill="#DD021C"/>
</svg>
